<svg xmlns="http://www.w3.org/2000/svg" version="1.1" xmlns:xlink="http://www.w3.org/1999/xlink" width="512" height="512" x="0" y="0" viewBox="0 0 32 32" style="enable-background:new 0 0 512 512" xml:space="preserve" class=""><g><path fill="#00b6b1" d="M26 28H6a.504.504 0 0 1-.354-.146l-1.5-1.5A.504.504 0 0 1 4 26V7.5a.5.5 0 1 1 1 0v18.293L6.207 27h19.586L27 25.793V6.207L25.793 5H6.207l-.916.915a.5.5 0 0 1-.707-.706l1.063-1.063A.5.5 0 0 1 6 4h20c.133 0 .26.053.354.146l1.5 1.5A.504.504 0 0 1 28 6v20c0 .133-.053.26-.146.354l-1.5 1.5A.504.504 0 0 1 26 28z" opacity="1" data-original="#263238" class=""></path><path fill="#00b6b1" d="M4.5 25h-2a.5.5 0 0 0 0 1h2a.5.5 0 0 0 0-1zM4.5 23h-2a.5.5 0 0 0 0 1h2a.5.5 0 0 0 0-1zM4.5 21h-2a.5.5 0 0 0 0 1h2a.5.5 0 0 0 0-1zM4.5 19h-2a.5.5 0 0 0 0 1h2a.5.5 0 0 0 0-1zM4.5 17h-2a.5.5 0 0 0 0 1h2a.5.5 0 0 0 0-1zM4.5 15h-2a.5.5 0 0 0 0 1h2a.5.5 0 0 0 0-1zM4.5 13h-2a.5.5 0 0 0 0 1h2a.5.5 0 0 0 0-1zM4.5 11h-2a.5.5 0 0 0 0 1h2a.5.5 0 0 0 0-1zM4.5 9h-2a.5.5 0 0 0 0 1h2a.5.5 0 0 0 0-1zM29.5 22h-2a.5.5 0 0 0 0 1h2a.5.5 0 0 0 0-1zM29.5 20h-2a.5.5 0 0 0 0 1h2a.5.5 0 0 0 0-1zM29.5 18h-2a.5.5 0 0 0 0 1h2a.5.5 0 0 0 0-1zM29.5 16h-2a.5.5 0 0 0 0 1h2a.5.5 0 0 0 0-1zM29.5 14h-2a.5.5 0 0 0 0 1h2a.5.5 0 0 0 0-1zM29.5 12h-2a.5.5 0 0 0 0 1h2a.5.5 0 0 0 0-1zM29.5 10h-2a.5.5 0 0 0 0 1h2a.5.5 0 0 0 0-1zM29.5 8h-2a.5.5 0 0 0 0 1h2a.5.5 0 0 0 0-1zM22.5 27a.5.5 0 0 0-.5.5v2a.5.5 0 0 0 1 0v-2a.5.5 0 0 0-.5-.5zM20.5 27a.5.5 0 0 0-.5.5v2a.5.5 0 0 0 1 0v-2a.5.5 0 0 0-.5-.5zM18.5 27a.5.5 0 0 0-.5.5v2a.5.5 0 0 0 1 0v-2a.5.5 0 0 0-.5-.5zM16.5 27a.5.5 0 0 0-.5.5v2a.5.5 0 0 0 1 0v-2a.5.5 0 0 0-.5-.5zM14.5 27a.5.5 0 0 0-.5.5v2a.5.5 0 0 0 1 0v-2a.5.5 0 0 0-.5-.5zM12.5 27a.5.5 0 0 0-.5.5v2a.5.5 0 0 0 1 0v-2a.5.5 0 0 0-.5-.5zM10.5 27a.5.5 0 0 0-.5.5v2a.5.5 0 0 0 1 0v-2a.5.5 0 0 0-.5-.5zM8.5 27a.5.5 0 0 0-.5.5v2a.5.5 0 0 0 1 0v-2a.5.5 0 0 0-.5-.5zM23.5 2a.5.5 0 0 0-.5.5v2a.5.5 0 0 0 1 0v-2a.5.5 0 0 0-.5-.5zM21.5 2a.5.5 0 0 0-.5.5v2a.5.5 0 0 0 1 0v-2a.5.5 0 0 0-.5-.5zM19.5 2a.5.5 0 0 0-.5.5v2a.5.5 0 0 0 1 0v-2a.5.5 0 0 0-.5-.5zM17.5 2a.5.5 0 0 0-.5.5v2a.5.5 0 0 0 1 0v-2a.5.5 0 0 0-.5-.5zM15.5 2a.5.5 0 0 0-.5.5v2a.5.5 0 0 0 1 0v-2a.5.5 0 0 0-.5-.5zM13.5 2a.5.5 0 0 0-.5.5v2a.5.5 0 0 0 1 0v-2a.5.5 0 0 0-.5-.5zM11.5 2a.5.5 0 0 0-.5.5v2a.5.5 0 0 0 1 0v-2a.5.5 0 0 0-.5-.5zM9.5 2a.5.5 0 0 0-.5.5v2a.5.5 0 0 0 1 0v-2a.5.5 0 0 0-.5-.5zM18.009 22h-2.5a.5.5 0 0 1 0-1h2.5c2.206 0 4-1.794 4-4v-2.5a.5.5 0 0 1 1 0V17c0 2.757-2.243 5-5 5z" opacity="1" data-original="#263238" class=""></path><path fill="#00b6b1" d="M15.509 24a.493.493 0 0 1-.257-.071l-5-3a.502.502 0 0 1 0-.858l5-3a.502.502 0 0 1 .504-.007.502.502 0 0 1 .253.436v2a.5.5 0 0 1-1 0v-1.117L11.48 20.5l3.528 2.117V21.5a.5.5 0 0 1 1 0v2a.499.499 0 0 1-.499.5zM9.5 18a.5.5 0 0 1-.5-.5V15c0-2.757 2.243-5 5-5h2.5a.5.5 0 0 1 0 1H14c-2.206 0-4 1.794-4 4v2.5a.5.5 0 0 1-.5.5z" opacity="1" data-original="#263238" class=""></path><path fill="#00b6b1" d="M16.5 15a.506.506 0 0 1-.247-.064A.504.504 0 0 1 16 14.5v-2a.5.5 0 0 1 1 0v1.117l3.528-2.117L17 9.383V10.5a.5.5 0 0 1-1 0v-2c0-.181.097-.347.253-.436a.504.504 0 0 1 .504.007l5 3a.501.501 0 0 1 0 .858l-5 3A.493.493 0 0 1 16.5 15z" opacity="1" data-original="#263238" class=""></path></g></svg>